<mxfile host="app.diagrams.net" agent="Mozilla/5.0 (Windows NT 10.0; Win64; x64) AppleWebKit/537.36 (KHTML, like Gecko) Chrome/127.0.0.0 Safari/537.36" version="24.7.7">
  <diagram name="PÃ¡gina-1" id="pZLGCcorovbGt57ALyU_">
    <mxGraphModel dx="860" dy="449" grid="1" gridSize="10" guides="1" tooltips="1" connect="1" arrows="1" fold="1" page="1" pageScale="1" pageWidth="827" pageHeight="1169" math="0" shadow="0">
      <root>
        <mxCell id="0" />
        <mxCell id="1" parent="0" />
        <mxCell id="0JsRNtkwK--oWNHgLMNd-1" value="Attribute" style="ellipse;whiteSpace=wrap;html=1;align=center;" vertex="1" parent="1">
          <mxGeometry x="10" y="60" width="100" height="40" as="geometry" />
        </mxCell>
        <mxCell id="0JsRNtkwK--oWNHgLMNd-2" value="Entity" style="whiteSpace=wrap;html=1;align=center;" vertex="1" parent="1">
          <mxGeometry x="10" y="20" width="100" height="40" as="geometry" />
        </mxCell>
        <mxCell id="0JsRNtkwK--oWNHgLMNd-3" value="Relationship" style="shape=rhombus;perimeter=rhombusPerimeter;whiteSpace=wrap;html=1;align=center;" vertex="1" parent="1">
          <mxGeometry x="5" y="100" width="110" height="60" as="geometry" />
        </mxCell>
        <mxCell id="0JsRNtkwK--oWNHgLMNd-81" style="rounded=0;orthogonalLoop=1;jettySize=auto;html=1;exitX=1;exitY=0.5;exitDx=0;exitDy=0;entryX=0;entryY=0.5;entryDx=0;entryDy=0;endArrow=none;endFill=0;" edge="1" parent="1" source="0JsRNtkwK--oWNHgLMNd-4" target="0JsRNtkwK--oWNHgLMNd-17">
          <mxGeometry relative="1" as="geometry" />
        </mxCell>
        <mxCell id="0JsRNtkwK--oWNHgLMNd-4" value="Empresa" style="whiteSpace=wrap;html=1;align=center;" vertex="1" parent="1">
          <mxGeometry x="240" y="200" width="100" height="40" as="geometry" />
        </mxCell>
        <mxCell id="0JsRNtkwK--oWNHgLMNd-87" style="rounded=0;orthogonalLoop=1;jettySize=auto;html=1;exitX=0.5;exitY=1;exitDx=0;exitDy=0;entryX=0.5;entryY=0;entryDx=0;entryDy=0;endArrow=none;endFill=0;" edge="1" parent="1" source="0JsRNtkwK--oWNHgLMNd-5" target="0JsRNtkwK--oWNHgLMNd-86">
          <mxGeometry relative="1" as="geometry" />
        </mxCell>
        <mxCell id="0JsRNtkwK--oWNHgLMNd-5" value="Vaga" style="whiteSpace=wrap;html=1;align=center;" vertex="1" parent="1">
          <mxGeometry x="520" y="200" width="100" height="40" as="geometry" />
        </mxCell>
        <mxCell id="0JsRNtkwK--oWNHgLMNd-7" value="identificador" style="ellipse;whiteSpace=wrap;html=1;align=left;spacingRight=0;spacingTop=40;spacingLeft=10;" vertex="1" parent="1">
          <mxGeometry x="630" y="260" width="30" height="20" as="geometry" />
        </mxCell>
        <mxCell id="0JsRNtkwK--oWNHgLMNd-8" value="" style="endArrow=none;html=1;rounded=0;entryX=0.332;entryY=0.004;entryDx=0;entryDy=0;entryPerimeter=0;exitX=1;exitY=1;exitDx=0;exitDy=0;" edge="1" parent="1" source="0JsRNtkwK--oWNHgLMNd-5" target="0JsRNtkwK--oWNHgLMNd-7">
          <mxGeometry relative="1" as="geometry">
            <mxPoint x="620" y="250" as="sourcePoint" />
            <mxPoint x="650" y="250" as="targetPoint" />
          </mxGeometry>
        </mxCell>
        <mxCell id="0JsRNtkwK--oWNHgLMNd-9" value="&lt;span style=&quot;text-wrap: nowrap;&quot;&gt;status&lt;/span&gt;" style="ellipse;whiteSpace=wrap;html=1;align=center;spacingTop=30;spacingLeft=5;" vertex="1" parent="1">
          <mxGeometry x="660" y="250" width="30" height="20" as="geometry" />
        </mxCell>
        <mxCell id="0JsRNtkwK--oWNHgLMNd-12" value="" style="endArrow=none;html=1;rounded=0;entryX=0;entryY=0;entryDx=0;entryDy=0;exitX=1;exitY=0.75;exitDx=0;exitDy=0;" edge="1" parent="1" source="0JsRNtkwK--oWNHgLMNd-5" target="0JsRNtkwK--oWNHgLMNd-9">
          <mxGeometry relative="1" as="geometry">
            <mxPoint x="640" y="240" as="sourcePoint" />
            <mxPoint x="660" y="250" as="targetPoint" />
          </mxGeometry>
        </mxCell>
        <mxCell id="0JsRNtkwK--oWNHgLMNd-82" style="rounded=0;orthogonalLoop=1;jettySize=auto;html=1;exitX=1;exitY=0.5;exitDx=0;exitDy=0;entryX=0;entryY=0.5;entryDx=0;entryDy=0;endArrow=none;endFill=0;" edge="1" parent="1" source="0JsRNtkwK--oWNHgLMNd-17" target="0JsRNtkwK--oWNHgLMNd-5">
          <mxGeometry relative="1" as="geometry" />
        </mxCell>
        <mxCell id="0JsRNtkwK--oWNHgLMNd-17" value="Gerencia" style="shape=rhombus;perimeter=rhombusPerimeter;whiteSpace=wrap;html=1;align=center;" vertex="1" parent="1">
          <mxGeometry x="380" y="195" width="100" height="50" as="geometry" />
        </mxCell>
        <mxCell id="0JsRNtkwK--oWNHgLMNd-89" style="rounded=0;orthogonalLoop=1;jettySize=auto;html=1;exitX=0;exitY=0.75;exitDx=0;exitDy=0;entryX=1;entryY=0.5;entryDx=0;entryDy=0;endArrow=none;endFill=0;" edge="1" parent="1" source="0JsRNtkwK--oWNHgLMNd-20" target="0JsRNtkwK--oWNHgLMNd-46">
          <mxGeometry relative="1" as="geometry" />
        </mxCell>
        <mxCell id="0JsRNtkwK--oWNHgLMNd-20" value="Cliente avulso" style="whiteSpace=wrap;html=1;align=center;" vertex="1" parent="1">
          <mxGeometry x="290" y="360" width="100" height="40" as="geometry" />
        </mxCell>
        <mxCell id="0JsRNtkwK--oWNHgLMNd-21" value="Entrega" style="shape=rhombus;perimeter=rhombusPerimeter;whiteSpace=wrap;html=1;align=center;" vertex="1" parent="1">
          <mxGeometry x="490" y="600" width="110" height="50" as="geometry" />
        </mxCell>
        <mxCell id="0JsRNtkwK--oWNHgLMNd-26" value="Carro" style="whiteSpace=wrap;html=1;align=center;" vertex="1" parent="1">
          <mxGeometry x="520" y="330" width="100" height="40" as="geometry" />
        </mxCell>
        <mxCell id="0JsRNtkwK--oWNHgLMNd-31" value="Manobrista" style="whiteSpace=wrap;html=1;align=center;" vertex="1" parent="1">
          <mxGeometry x="570" y="470" width="100" height="40" as="geometry" />
        </mxCell>
        <mxCell id="0JsRNtkwK--oWNHgLMNd-42" value="&lt;span style=&quot;text-wrap: nowrap;&quot;&gt;placa&lt;/span&gt;" style="ellipse;whiteSpace=wrap;html=1;align=right;spacingRight=30;" vertex="1" parent="1">
          <mxGeometry x="100" y="580" width="30" height="20" as="geometry" />
        </mxCell>
        <mxCell id="0JsRNtkwK--oWNHgLMNd-46" value="Recebe" style="shape=rhombus;perimeter=rhombusPerimeter;whiteSpace=wrap;html=1;align=center;" vertex="1" parent="1">
          <mxGeometry x="150" y="390" width="110" height="50" as="geometry" />
        </mxCell>
        <mxCell id="0JsRNtkwK--oWNHgLMNd-69" style="rounded=0;orthogonalLoop=1;jettySize=auto;html=1;exitX=0;exitY=0;exitDx=0;exitDy=0;entryX=1;entryY=0.5;entryDx=0;entryDy=0;endArrow=none;endFill=0;" edge="1" parent="1" source="0JsRNtkwK--oWNHgLMNd-48" target="0JsRNtkwK--oWNHgLMNd-53">
          <mxGeometry relative="1" as="geometry" />
        </mxCell>
        <mxCell id="0JsRNtkwK--oWNHgLMNd-70" style="rounded=0;orthogonalLoop=1;jettySize=auto;html=1;exitX=0;exitY=0.5;exitDx=0;exitDy=0;entryX=1;entryY=0;entryDx=0;entryDy=0;endArrow=none;endFill=0;" edge="1" parent="1" source="0JsRNtkwK--oWNHgLMNd-48" target="0JsRNtkwK--oWNHgLMNd-55">
          <mxGeometry relative="1" as="geometry" />
        </mxCell>
        <mxCell id="0JsRNtkwK--oWNHgLMNd-71" style="rounded=0;orthogonalLoop=1;jettySize=auto;html=1;exitX=0;exitY=1;exitDx=0;exitDy=0;entryX=1;entryY=0;entryDx=0;entryDy=0;endArrow=none;endFill=0;" edge="1" parent="1" source="0JsRNtkwK--oWNHgLMNd-48" target="0JsRNtkwK--oWNHgLMNd-42">
          <mxGeometry relative="1" as="geometry" />
        </mxCell>
        <mxCell id="0JsRNtkwK--oWNHgLMNd-72" style="rounded=0;orthogonalLoop=1;jettySize=auto;html=1;exitX=0;exitY=1;exitDx=0;exitDy=0;entryX=0.5;entryY=0;entryDx=0;entryDy=0;endArrow=none;endFill=0;" edge="1" parent="1" source="0JsRNtkwK--oWNHgLMNd-48" target="0JsRNtkwK--oWNHgLMNd-64">
          <mxGeometry relative="1" as="geometry" />
        </mxCell>
        <mxCell id="0JsRNtkwK--oWNHgLMNd-73" style="rounded=0;orthogonalLoop=1;jettySize=auto;html=1;exitX=0.25;exitY=1;exitDx=0;exitDy=0;entryX=0;entryY=0;entryDx=0;entryDy=0;endArrow=none;endFill=0;" edge="1" parent="1" source="0JsRNtkwK--oWNHgLMNd-48" target="0JsRNtkwK--oWNHgLMNd-63">
          <mxGeometry relative="1" as="geometry" />
        </mxCell>
        <mxCell id="0JsRNtkwK--oWNHgLMNd-76" style="rounded=0;orthogonalLoop=1;jettySize=auto;html=1;exitX=0;exitY=0;exitDx=0;exitDy=0;entryX=1;entryY=1;entryDx=0;entryDy=0;endArrow=none;endFill=0;" edge="1" parent="1" source="0JsRNtkwK--oWNHgLMNd-48" target="0JsRNtkwK--oWNHgLMNd-54">
          <mxGeometry relative="1" as="geometry" />
        </mxCell>
        <mxCell id="0JsRNtkwK--oWNHgLMNd-80" style="rounded=0;orthogonalLoop=1;jettySize=auto;html=1;exitX=0;exitY=0;exitDx=0;exitDy=0;entryX=0;entryY=1;entryDx=0;entryDy=0;endArrow=none;endFill=0;" edge="1" parent="1" source="0JsRNtkwK--oWNHgLMNd-48" target="0JsRNtkwK--oWNHgLMNd-79">
          <mxGeometry relative="1" as="geometry" />
        </mxCell>
        <mxCell id="0JsRNtkwK--oWNHgLMNd-48" value="Ticket" style="whiteSpace=wrap;html=1;align=center;" vertex="1" parent="1">
          <mxGeometry x="150" y="520" width="100" height="40" as="geometry" />
        </mxCell>
        <mxCell id="0JsRNtkwK--oWNHgLMNd-53" value="&lt;span style=&quot;text-wrap: nowrap;&quot;&gt;cor do veiculo&lt;/span&gt;" style="ellipse;whiteSpace=wrap;html=1;align=right;spacingRight=30;" vertex="1" parent="1">
          <mxGeometry x="80" y="520" width="30" height="20" as="geometry" />
        </mxCell>
        <mxCell id="0JsRNtkwK--oWNHgLMNd-54" value="hora&lt;br&gt;saida" style="ellipse;whiteSpace=wrap;html=1;align=right;spacingRight=30;" vertex="1" parent="1">
          <mxGeometry x="80" y="490" width="30" height="20" as="geometry" />
        </mxCell>
        <mxCell id="0JsRNtkwK--oWNHgLMNd-55" value="&lt;span style=&quot;text-wrap: nowrap;&quot;&gt;marca&lt;/span&gt;" style="ellipse;whiteSpace=wrap;html=1;align=right;spacingRight=30;" vertex="1" parent="1">
          <mxGeometry x="90" y="550" width="30" height="20" as="geometry" />
        </mxCell>
        <mxCell id="0JsRNtkwK--oWNHgLMNd-63" value="&lt;span style=&quot;text-wrap: nowrap;&quot;&gt;&lt;font style=&quot;font-size: 12px;&quot;&gt;hora&lt;br&gt;entrada&lt;/font&gt;&lt;/span&gt;" style="ellipse;whiteSpace=wrap;html=1;align=left;perimeterSpacing=0;spacingLeft=35;" vertex="1" parent="1">
          <mxGeometry x="210" y="590" width="30" height="20" as="geometry" />
        </mxCell>
        <mxCell id="0JsRNtkwK--oWNHgLMNd-64" value="&lt;span style=&quot;text-wrap: nowrap;&quot;&gt;numero&lt;br&gt;vaga&lt;/span&gt;" style="ellipse;whiteSpace=wrap;html=1;align=center;spacingBottom=0;spacingTop=42;" vertex="1" parent="1">
          <mxGeometry x="150" y="590" width="30" height="20" as="geometry" />
        </mxCell>
        <mxCell id="0JsRNtkwK--oWNHgLMNd-74" value="Cliente mensalista" style="whiteSpace=wrap;html=1;align=center;" vertex="1" parent="1">
          <mxGeometry x="660" y="380" width="100" height="40" as="geometry" />
        </mxCell>
        <mxCell id="0JsRNtkwK--oWNHgLMNd-77" value="valor&lt;br&gt;fixo" style="ellipse;whiteSpace=wrap;html=1;align=right;spacingRight=30;spacingBottom=10;" vertex="1" parent="1">
          <mxGeometry x="115" y="470" width="30" height="20" as="geometry" />
        </mxCell>
        <mxCell id="0JsRNtkwK--oWNHgLMNd-78" style="rounded=0;orthogonalLoop=1;jettySize=auto;html=1;exitX=0;exitY=0;exitDx=0;exitDy=0;entryX=0.5;entryY=1;entryDx=0;entryDy=0;endArrow=none;endFill=0;" edge="1" parent="1" source="0JsRNtkwK--oWNHgLMNd-48" target="0JsRNtkwK--oWNHgLMNd-77">
          <mxGeometry relative="1" as="geometry" />
        </mxCell>
        <mxCell id="0JsRNtkwK--oWNHgLMNd-79" value="valor&lt;br&gt;&lt;div style=&quot;&quot;&gt;&lt;span style=&quot;background-color: initial;&quot;&gt;estacionamento&lt;/span&gt;&lt;/div&gt;" style="ellipse;whiteSpace=wrap;html=1;align=center;spacingRight=20;spacingBottom=58;" vertex="1" parent="1">
          <mxGeometry x="150" y="470" width="30" height="20" as="geometry" />
        </mxCell>
        <mxCell id="0JsRNtkwK--oWNHgLMNd-88" style="rounded=0;orthogonalLoop=1;jettySize=auto;html=1;exitX=0.5;exitY=1;exitDx=0;exitDy=0;entryX=0.5;entryY=0;entryDx=0;entryDy=0;endArrow=none;endFill=0;" edge="1" parent="1" source="0JsRNtkwK--oWNHgLMNd-86" target="0JsRNtkwK--oWNHgLMNd-26">
          <mxGeometry relative="1" as="geometry" />
        </mxCell>
        <mxCell id="0JsRNtkwK--oWNHgLMNd-86" value="Ocupa" style="shape=rhombus;perimeter=rhombusPerimeter;whiteSpace=wrap;html=1;align=center;" vertex="1" parent="1">
          <mxGeometry x="515" y="260" width="110" height="50" as="geometry" />
        </mxCell>
        <mxCell id="0JsRNtkwK--oWNHgLMNd-90" style="rounded=0;orthogonalLoop=1;jettySize=auto;html=1;exitX=0.5;exitY=1;exitDx=0;exitDy=0;endArrow=none;endFill=0;" edge="1" parent="1" source="0JsRNtkwK--oWNHgLMNd-46">
          <mxGeometry relative="1" as="geometry">
            <mxPoint x="180" y="520" as="targetPoint" />
          </mxGeometry>
        </mxCell>
      </root>
    </mxGraphModel>
  </diagram>
</mxfile>
